<?xml version="1.0" standalone="no"?>
<!DOCTYPE svg PUBLIC "-//W3C//DTD SVG 20010904//EN"
 "http://www.w3.org/TR/2001/REC-SVG-20010904/DTD/svg10.dtd">
<svg version="1.0" xmlns="http://www.w3.org/2000/svg"
 width="700.000000pt" height="700.000000pt" viewBox="0 0 700.000000 700.000000"
 preserveAspectRatio="xMidYMid meet">
<metadata>
Created by potrace 1.11, written by Peter Selinger 2001-2013
</metadata>
<g transform="translate(0.000000,700.000000) scale(0.100000,-0.100000)"
fill="#000000" stroke="none">
<path d="M3778 6404 c-2 -1 -32 -5 -68 -8 -308 -30 -571 -147 -732 -326 l-53
-59 -1 119 c-2 109 -4 125 -29 176 -23 47 -35 60 -73 76 -51 23 -118 21 -209
-7 -29 -8 -267 -122 -530 -251 -263 -130 -543 -268 -623 -307 -180 -87 -267
-142 -308 -194 -43 -55 -54 -88 -54 -162 1 -102 31 -151 196 -316 151 -150
192 -210 216 -315 11 -44 13 -390 13 -1665 0 -885 -4 -1632 -8 -1660 -11 -66
-10 -63 -29 -118 -26 -77 -63 -144 -151 -272 -73 -106 -131 -200 -132 -215 -1
-3 -6 -25 -13 -50 -16 -58 -7 -141 19 -184 12 -19 39 -41 63 -52 41 -18 81
-19 1103 -19 l1060 0 41 23 c61 36 79 72 78 162 -1 104 -26 150 -209 390 -77
100 -125 190 -150 280 -17 58 -19 112 -20 500 -1 239 0 440 2 446 2 6 36 -5
81 -28 42 -21 84 -38 93 -38 8 0 19 -4 25 -9 12 -11 156 -48 220 -57 27 -3 52
-8 55 -10 11 -6 214 -18 299 -17 82 1 204 9 245 17 11 2 43 7 70 10 238 34
591 182 780 328 303 234 485 448 628 738 34 69 67 139 73 155 33 89 79 239 88
285 2 14 11 57 19 95 9 39 18 95 22 125 3 30 8 67 11 83 20 120 19 553 -1 627
-2 8 -7 35 -10 60 -57 423 -267 829 -586 1135 -52 50 -124 111 -159 138 -36
26 -69 51 -75 55 -74 57 -344 181 -481 222 -139 40 -296 74 -409 86 -58 6
-382 13 -387 8z m-124 -469 c150 -71 253 -240 376 -617 25 -76 69 -233 85
-308 31 -138 65 -338 80 -470 3 -25 7 -61 10 -80 2 -19 7 -73 10 -120 4 -47 8
-105 10 -130 20 -240 27 -798 12 -934 -18 -165 -71 -338 -128 -421 -42 -63
-99 -113 -159 -143 -48 -23 -67 -26 -155 -27 -93 0 -105 2 -166 32 -184 91
-345 356 -408 672 -25 123 -29 148 -38 251 -9 109 -9 1833 0 1920 19 177 79
301 175 357 92 55 204 62 296 18z"/>
</g>
</svg>
