<svg viewBox="0 0 200 200" xmlns="http://www.w3.org/2000/svg" xml:space="preserve">
  <path fill="#d9f4ff" d="M21.4,-41.1C26.4,-30.1,28.2,-21.9,34.5,-14C40.9,-6.1,51.7,1.4,57.7,13.2C63.7,25.1,64.9,41.1,56.4,46.3C47.9,51.5,29.8,45.7,15.3,48.4C0.7,51,-10.4,62,-19.3,61.4C-28.1,60.7,-34.8,48.3,-46.6,38.4C-58.4,28.4,-75.3,20.8,-78.9,10.1C-82.4,-0.7,-72.6,-14.7,-63.4,-26.4C-54.1,-38.2,-45.5,-47.7,-35,-56.2C-24.5,-64.7,-12.3,-72.2,-2,-69C8.2,-65.8,16.4,-52.1,21.4,-41.1Z" transform="translate(100 100)" />
</svg>
