<?xml version="1.0" encoding="utf-8"?>
<!-- Generator: Adobe Illustrator 16.0.3, SVG Export Plug-In . SVG Version: 6.00 Build 0)  -->
<!DOCTYPE svg PUBLIC "-//W3C//DTD SVG 1.1//EN" "http://www.w3.org/Graphics/SVG/1.1/DTD/svg11.dtd">
<svg version="1.1" id="Layer_1" xmlns="http://www.w3.org/2000/svg" xmlns:xlink="http://www.w3.org/1999/xlink" x="0px" y="0px"
	 width="326.081px" height="259.498px" viewBox="0 0 326.081 259.498" enable-background="new 0 0 326.081 259.498"
	 xml:space="preserve">
<linearGradient id="SVGID_1_" gradientUnits="userSpaceOnUse" x1="186.373" y1="250.3267" x2="336.8877" y2="250.3267" gradientTransform="matrix(0.9847 0.1741 -0.1741 0.9847 44.5294 -154.8354)">
	<stop  offset="0.0054" style="stop-color:#BEB3D8"/>
	<stop  offset="1" style="stop-color:#A38AC0"/>
</linearGradient>
<path opacity="0.3" fill="url(#SVGID_1_)" d="M317.732,152.137c-7.088-11.952-16.557-19.828-14.812-35.424
	c1.704-15.229,13.027-29.979,8.129-44.499c-2.254-6.682-7.618-11.785-12.954-16.396c-6.303-5.447-13.036-10.728-20.969-13.273
	c-13.154-4.221-28.298,0.948-37.303,11.23c-1.558-7.373-2.674-14.92-3.744-22.362l-52.94,104.78
	c-3.411,14.407-6.848,29.05-6.431,43.801c0.417,14.752,5.218,29.892,15.744,39.013c7.488,6.487,17.1,9.376,26.484,11.886
	c19.86,5.311,40.658,9.604,60.936,5.065c20.278-4.539,40.012-19.902,44.97-41.636C327.993,180.508,324.954,164.316,317.732,152.137z
	 M251.917,85.87c-0.589-0.913-1.148-1.842-1.689-2.782l30.326,30.907C269.993,105.745,259.334,97.372,251.917,85.87z"/>
<g>
	<linearGradient id="SVGID_2_" gradientUnits="userSpaceOnUse" x1="223.7881" y1="290.9878" x2="189.0822" y2="230.9877">
		<stop  offset="0.0054" style="stop-color:#BEB3D8"/>
		<stop  offset="1" style="stop-color:#A38AC0"/>
	</linearGradient>
	<ellipse fill="url(#SVGID_2_)" cx="191.403" cy="234.999" rx="127.431" ry="14.25"/>
	<g>
		<linearGradient id="SVGID_3_" gradientUnits="userSpaceOnUse" x1="116.5547" y1="206.2876" x2="101.5547" y2="149.7876">
			<stop  offset="0.0054" style="stop-color:#BEB3D8"/>
			<stop  offset="1" style="stop-color:#A38AC0"/>
		</linearGradient>
		<path fill="url(#SVGID_3_)" d="M128.368,236.209c0,0-51.523-26.044-38.4-93.952c0,0,49.386,21.412,50.951,93.952H128.368z"/>
		<path fill="#FFFFFF" d="M94.985,150.418c0,0,0.603,1.209,1.656,3.325c1.038,2.123,2.521,5.156,4.301,8.796
			c1.749,3.655,3.829,7.9,5.985,12.482c2.157,4.581,4.46,9.468,6.762,14.354c2.261,4.906,4.522,9.812,6.642,14.41
			c2.124,4.598,4.035,8.922,5.709,12.611c1.642,3.704,3.01,6.791,3.968,8.951c0.942,2.169,1.48,3.407,1.48,3.407
			s-0.603-1.209-1.657-3.324c-1.038-2.124-2.521-5.157-4.302-8.797c-1.748-3.655-3.83-7.898-5.984-12.481
			c-2.157-4.582-4.459-9.469-6.761-14.354c-2.261-4.906-4.522-9.812-6.642-14.411c-2.122-4.598-4.034-8.921-5.708-12.61
			c-1.643-3.704-3.011-6.791-3.969-8.952C95.523,151.657,94.985,150.418,94.985,150.418z"/>
	</g>
	<g>
		
			<linearGradient id="SVGID_4_" gradientUnits="userSpaceOnUse" x1="184.5664" y1="-54.5117" x2="173.0934" y2="-97.7268" gradientTransform="matrix(0.9014 -0.433 0.433 0.9014 -36.3311 347.3375)">
			<stop  offset="0.0054" style="stop-color:#7DD1EA"/>
			<stop  offset="1" style="stop-color:#32C4EE"/>
		</linearGradient>
		<path fill="url(#SVGID_4_)" d="M124.49,234.999c0,0-44.149-0.89-57.596-52.055c0,0,41.142-1.597,66.249,47.897L124.49,234.999z"/>
		<path fill="#2199B5" d="M73.058,186.908c0,0,0.815,0.635,2.243,1.744c1.419,1.12,3.446,2.72,5.88,4.64
			c2.416,1.94,5.256,4.179,8.26,6.624c3.005,2.443,6.211,5.05,9.417,7.656c3.184,2.633,6.367,5.267,9.353,7.734
			c2.986,2.467,5.736,4.814,8.112,6.804c2.358,2.01,4.325,3.686,5.701,4.857c1.367,1.183,2.148,1.859,2.148,1.859
			s-0.815-0.635-2.243-1.744c-1.419-1.12-3.446-2.72-5.88-4.64c-2.415-1.94-5.257-4.177-8.26-6.623
			c-3.005-2.444-6.211-5.051-9.416-7.657c-3.185-2.634-6.368-5.267-9.353-7.735c-2.985-2.468-5.736-4.814-8.112-6.804
			c-2.359-2.01-4.325-3.685-5.701-4.857C73.839,187.583,73.058,186.908,73.058,186.908z"/>
	</g>
	<g>
		
			<linearGradient id="SVGID_5_" gradientUnits="userSpaceOnUse" x1="308.9072" y1="346.7271" x2="298.9074" y2="470.7265" gradientTransform="matrix(0.9265 0.3763 -0.3763 0.9265 146.6777 -316.2864)">
			<stop  offset="0.0054" style="stop-color:#7DD1EA"/>
			<stop  offset="1" style="stop-color:#32C4EE"/>
		</linearGradient>
		<path fill="url(#SVGID_5_)" d="M284.866,207.22c-1.912-4.664-6.26-9.3-4.324-13.954c1.268-3.048,4.709-4.421,7.653-5.911
			c3.324-1.683,6.468-3.971,8.383-7.167c2.813-4.696,0.723-9.548,1.093-14.608c0.405-5.538,2.778-10.638,5.872-15.169
			c17.689-25.91-8.265-48.682-16.455-21.774c-8.191,26.909-14.319,24.796-24.655,32.425s0.944,26.288-18.009,28.663
			c-25.866,3.242-4.841,37.088-0.296,48.74l11.93-4.118c4.905-1.725,9.811-3.45,14.716-5.175c3.595-1.264,7.286-2.584,10.146-5.101
			C285.541,220.005,287.202,212.915,284.866,207.22z"/>
		<path fill="#2199B5" d="M244.833,237.947l-0.741-0.671c23.073-25.481,52.607-108.512,52.902-109.348l0.942,0.334
			C297.641,129.1,268.04,212.319,244.833,237.947z"/>
	</g>
	<g>
		<path fill="#4C358C" d="M120.126,225.575c0.042-0.518,0.146-1.021,0.337-1.501l83.618-209.6c2.131-5.333,7.007-9.005,12.617-9.656
			c2.87-2.979,6.876-4.755,11.178-4.755h85.78c0.741-0.18,2.282,0.078,2.642,0.145c4.939,0.919,10.078,8.061,9.7,12.992
			c-0.305,3.975-1.911,7.729-3.358,11.395c-1.439,3.646-2.951,7.261-4.405,10.901c-0.001,0.001-74.225,185.717-74.225,185.718
			l-2.093,5.235c-0.2,0.499-0.425,0.982-0.671,1.452l-1.441,3.487c-2.369,5.732-7.96,9.472-14.163,9.472h-7.52h-3.754h-68.152
			h-9.965h-3.68c-2.92,0-5.757-1.066-7.895-3.055C119.649,233.13,119.708,228.038,120.126,225.575z"/>
		<path fill="#7264AD" d="M120.854,222.884L206.007,9.823c2.356-5.895,8.064-9.76,14.412-9.76h90.17
			c6.874,0,11.575,6.942,9.024,13.326L234.46,226.45c-2.355,5.895-8.063,9.76-14.411,9.76h-90.17
			C123.005,236.209,118.303,229.268,120.854,222.884z"/>
		<path fill="#A18EC3" d="M126.169,218.67l82.246-206.483c1.941-4.858,6.646-8.043,11.877-8.043h20.271l0.879,2.198
			c0.423,1.058,1.447,1.751,2.586,1.751h41.579c0.978,0,1.898-0.46,2.485-1.242l2.029-2.707h18.416c5.203,0,8.761,5.254,6.83,10.085
			l-82.246,206.484c-1.941,4.857-6.646,8.043-11.877,8.043h-88.246C127.796,228.755,124.238,223.501,126.169,218.67z"/>
		<path fill="#4C358C" d="M251.62,5.328h28.695c0.582,0,1.274-0.471,1.547-1.053l0,0c0.272-0.582,0.022-1.053-0.56-1.053h-28.695
			c-0.581,0-1.274,0.471-1.547,1.053l0,0C250.788,4.857,251.039,5.328,251.62,5.328z"/>
		<path fill="#4C358C" d="M245.4,4.275c0.307-0.654,1.086-1.185,1.74-1.185s0.937,0.531,0.63,1.185s-1.086,1.185-1.74,1.185
			S245.094,4.93,245.4,4.275z"/>
		<path opacity="0.7" fill="#A18EC3" d="M231.296,174.62h-66.267c-2.728,0-5.179,1.662-6.188,4.196l-2.899,7.279
			c-0.985,2.474,0.837,5.16,3.499,5.16h66.268c2.727,0,5.178-1.662,6.188-4.195l2.899-7.279
			C235.781,177.307,233.959,174.62,231.296,174.62z"/>
		<path opacity="0.2" fill="#A18EC3" d="M250.95,53.417c-34.929,25.333-60.87,4.802-60.87,4.802l-18.775,47.135l0,0
			c0,0,11.952,20.083,46.024,27.43c19.313,4.164,49.133-10.7,57.286-16.243l30.997-77.819
			C285.996,53.417,273.224,37.263,250.95,53.417z"/>
		<polygon opacity="0.51" fill="#A18EC3" points="223.164,145.449 192.022,145.449 190.351,149.646 221.492,149.646 		"/>
		<polygon opacity="0.51" fill="#A18EC3" points="281.292,20.61 238.173,20.61 235.858,26.422 278.977,26.422 		"/>
		<polygon opacity="0.51" fill="#A18EC3" points="230.429,151.94 177.704,151.94 176.032,156.138 228.756,156.138 		"/>
		<path opacity="0.51" fill="#A18EC3" d="M248.296,80.958l1.839-4.557c5.004-11.053,15.555-17.766,15.555-17.766l-7.134-4.999
			c-6.555,4.398-12.014,2.865-12.014,2.865s-6.378,0.745-9.134-4.274l-10.688,3.812c0,0,4.84,6.906,0.899,18.03l-1.839,4.557
			c0,0-22.148,23.135-30.614,29.902c0,0,0.033,2.966,3.317,3.965c3.285,0.998,8.542-0.523,12.022,2.36
			c3.48,2.883,3.072,4.571,10.454,5.063c7.382,0.491,8.321-1.161,13.885-3.442s9.351-0.157,13.248-0.677
			c3.897-0.521,6.259-3.327,6.259-3.327C251.646,104.959,248.296,80.958,248.296,80.958z"/>
	</g>
	<g>
		
			<linearGradient id="SVGID_6_" gradientUnits="userSpaceOnUse" x1="248.458" y1="209.8052" x2="242.4796" y2="293.5026" gradientTransform="matrix(0.9947 0.1027 -0.1027 0.9947 29.3947 -88.5362)">
			<stop  offset="0.0054" style="stop-color:#F174A8"/>
			<stop  offset="1" style="stop-color:#F05C97"/>
		</linearGradient>
		<path fill="url(#SVGID_6_)" d="M265.224,218.806c0.076-0.139,0.149-0.278,0.221-0.42c1.706-3.371,1.92-7.342,0.948-10.961
			c-1.305-4.856-9.265-9.119-8.027-14.223c0.459-1.893,1.784-3.448,3.171-4.815c5.438-5.366,8.354-13.647,3.022-20.412
			c-2.005-2.543-5.729-2.822-7.372-5.411c-2.006-3.161,0.519-6.802,0.36-10.157c-0.177-3.748-2.614-7.531-5.915-9.271
			c-2.937-1.547-6.421-1.01-8.868,1.3c-4.184,3.949-1.314,9.796-3.83,14.4c-1.757,3.216-4.774,5.562-6.292,8.933
			c-2.085,4.631-2.059,10.29,0.486,14.738c2.072,3.621,2.251,9.486-1.011,12.518c-1.396,1.298-3.17,2.097-4.898,2.903
			c-10.292,4.799-7.344,16.446-2.974,24.475c4.208,7.731,13.815,21.876,24.311,15.712c5.369-3.154,10.083-10.324,13.789-15.135
			C263.377,221.639,264.415,220.29,265.224,218.806z"/>
		<path fill="#D74F86" d="M243.122,239.754l-0.954-0.299c8.949-28.609,6.032-88.782,6.002-89.387l0.999-0.05
			C249.199,150.625,252.125,210.975,243.122,239.754z"/>
	</g>
	<g>
		<g>
			<g>
				<linearGradient id="SVGID_7_" gradientUnits="userSpaceOnUse" x1="162.8223" y1="139.9673" x2="192.8227" y2="198.468">
					<stop  offset="0.0054" style="stop-color:#FBFEFF"/>
					<stop  offset="1" style="stop-color:#FAF9D9"/>
				</linearGradient>
				<polygon fill="url(#SVGID_7_)" points="142.431,158.532 198.144,137.211 214.978,176.99 157.237,200.708 				"/>
				<linearGradient id="SVGID_8_" gradientUnits="userSpaceOnUse" x1="222.0205" y1="117.4995" x2="207.021" y2="160.4982">
					<stop  offset="0.0054" style="stop-color:#F174A8"/>
					<stop  offset="1" style="stop-color:#F05C97"/>
				</linearGradient>
				<polygon fill="url(#SVGID_8_)" points="198.144,137.211 201.493,137.419 218.848,175.33 214.978,176.99 				"/>
			</g>
			<path fill="none" stroke="#522B82" stroke-width="0.5" stroke-miterlimit="10" d="M153.473,160.307c0,0,1.321-27.974,10.19-30.19
				c11.996-2.998,26.333,16.634,26.333,16.634"/>
		</g>
		<path fill="#F6A2AB" d="M131.445,151.23l5.86,31.085c0,0,4.841-9.173,12.994-11.976c8.154-2.803,22.933-15.543,22.933-15.543
			l3.058,5.097c0,0-30.161,28.792-33.044,32.869c-2.883,4.076-9.763,7.898-14.095,2.803c-4.331-5.097-14.778-31.851-14.778-31.851
			L131.445,151.23z"/>
		<polygon opacity="0.5" fill="#E0829C" points="123.663,158.75 116.065,167.955 117.566,171.626 134.754,168.783 		"/>
		<path fill="#F6AABE" d="M112.866,137.816L92.065,169.87c0,0-5.75,9.604-7.224,14.278c-1.474,4.675-16.883,30.816-28.28,43.529
			c-11.397,12.712-12.374,14.446-12.374,14.446l11.374,1.28c0,0,22.682-24.627,25.98-27.823c3.3-3.195,14.042-12.42,16.706-27.546
			c0,0,0.725-3.111,4.935-6.993c4.21-3.881,18.748-19.242,18.748-19.242l3.706-19.332L112.866,137.816z"/>
		<path fill="#F6AABE" d="M111.723,50.535c0,0-29.304-13.926-30.174-15.221c-0.87-1.294-3.237-16.772-3.274-19.316
			s-1.616-6.741-2.75-7.479c-1.134-0.738-1.047,3.393-1.047,3.393s-3.781-2.668-5.869-5.279c-0.572-0.716-1.56-0.946-2.391-0.56
			c-0.873,0.406-1.772,0.961-1.719,1.51c0.104,1.051,2.181,5.113,3.927,6.046c1.747,0.934,4.373,1.737,4.373,1.737
			s-1.982,22.152-0.081,24.68c1.9,2.528,20.378,13.947,30.975,19.171l1.847,1.517L111.723,50.535z"/>
		
			<linearGradient id="SVGID_9_" gradientUnits="userSpaceOnUse" x1="78.1846" y1="218.1821" x2="183.0664" y2="218.1821" gradientTransform="matrix(0.9856 0.1689 -0.1689 0.9856 36.0202 -124.9047)">
			<stop  offset="0.0054" style="stop-color:#F174A8"/>
			<stop  offset="1" style="stop-color:#F05C97"/>
		</linearGradient>
		<path fill="url(#SVGID_9_)" d="M116.533,49.535l-7.787,1.453c0,0-8.031,10.298-5.602,18.672
			c2.431,8.374,5.056,14.281,5.056,14.281l-41.306,73.863c0,0,18.842,13.688,38.122,6.533c19.28-7.155,42.229,18.149,65.931,7.205
			L135.27,84.942l8.282-29.502L116.533,49.535z"/>
		
			<linearGradient id="SVGID_10_" gradientUnits="userSpaceOnUse" x1="134.1406" y1="170.6743" x2="145.8643" y2="170.6743" gradientTransform="matrix(0.9856 0.1689 -0.1689 0.9856 36.0202 -124.9047)">
			<stop  offset="0.0054" style="stop-color:#F174A8"/>
			<stop  offset="1" style="stop-color:#F05C97"/>
		</linearGradient>
		<path fill="url(#SVGID_10_)" d="M137.531,76.886c0,0,7.415-12.34,14.465-14.997l-8.444-6.449L137.531,76.886z"/>
		<path fill="#F6AABE" d="M140.667,72.272l12.076,30.367l7.162,23.66c0,0,0.622,3.441,1.548,5.116s1.507,3.593,4.746,4.148
			c3.239,0.555,5.226-3.955,4.645-5.874c-0.581-1.918-3.669-3.357-4.106-4.342s-14.741-63.459-14.741-63.459
			S141.719,60.828,140.667,72.272z"/>
		<path fill="#F6AABE" d="M125.431,46.663l-9.902,3.06c0,0,7.354,10.36,29.33,6.715l-8.211-9.467L125.431,46.663z"/>
		<path fill="#50398B" d="M121.568,19.869c0,0-9.867,3.35-10.104,12.268c-0.238,8.919-8.773,12.892-14.411,19.082
			c-5.639,6.19-9.792,16.896,1.91,22.558s21.925-18.549,23.957-25.055C124.951,42.215,126.402,22.01,121.568,19.869z"/>
		<path fill="#F6AABE" d="M133.181,24.382c-0.293-0.108-1.497-4.113-4.466-5.256c-2.749-1.058-7.289,0.734-7.289,0.734
			s-0.185,0.861-0.39,1.819c0,0-2.676,4.231-4.814,8.956c-0.435,0.772-0.772,1.609-1.045,2.481c-0.78,2.013-2.271,5.115-1.067,7.23
			c0.653,1.147,2.171,1.815,3.412,2.059c0.325,0.064,4.843,0.209,4.821,0.333l-1.11,10.538l9.331-2.355l9.434-15.23
			C139.997,35.689,133.746,24.59,133.181,24.382z"/>
		<path fill="#50398B" d="M130.726,54.68c0.045-4.84,1.759-9.934,3.103-14.438c0,0,2.383,0.486,3.786-2.168
			c1.404-2.655,0.384-3.715-1.773-4.755c-2.158-1.04-1.472-4.309-4.338-9.993c-2.866-5.683-10.467-1.647-10.467-1.647
			s-2.725-0.753-0.613-4.363c2.11-3.61,8.06-6.027,14.911-3.398c6.852,2.628,11.379,10.923,12.231,21.11s5.85,14.157,11.631,16.995
			c3.416,1.677,7.428,1.778,10.398,4.329c3.755,3.225,5.804,9.405,5.812,14.235c0.011,5.419-3.341,10.572-8.035,13.281
			c-4.694,2.708-10.529,3.101-15.746,1.632c-5.406-1.521-10.085-5.511-12.824-10.326c-3.22-5.657-7.259-11.621-7.975-18.321
			C130.751,56.136,130.72,55.411,130.726,54.68z"/>
		<path fill="#F6AABE" d="M53.709,230.708l-6.765,8.105c0,0-11.137,4.647-15.83,4.55c0,0-2.367,2.608,2.137,4.648
			c4.505,2.04,18.605,0.249,21.065-0.182c2.459-0.43,3.494-3.958,3.177-5.179c-0.318-1.221,4.792-6.887,4.792-6.887L53.709,230.708z
			"/>
		<path fill="#523A96" d="M57.101,245.186c0,0-24.021,3.782-25.986-1.823c0,0-5.557-0.436-7.978-1.883
			c-2.421-1.448-4.582,1.142,1.629,5.37c6.212,4.229,11.968,5.837,18.73,6.4l-3.5,4.583l2.202,1.664
			c0.977-1.525,4.883-5.411,5.432-5.865c2.392-1.981,5.573-2.517,7.79-4.561C56.652,247.936,57.829,246.997,57.101,245.186z"/>
		<path fill="#F6A2AB" d="M172.974,162.973l5.023-4.168c0,0,7.292-1.575,10.135-0.988c0,0,1.732-1.32-0.777-3.066
			c-2.509-1.746-11.283-2.24-12.827-2.255s-2.569,2.014-2.513,2.792c0.057,0.777-3.688,3.648-3.688,3.648L172.974,162.973z"/>
		<path fill="#523A96" d="M172.538,153.79c0,0,15.028,0.398,15.594,4.027c0,0,3.329,0.889,4.639,2.041
			c1.31,1.151,2.914-0.18-0.388-3.448c-3.301-3.269-6.62-4.893-10.668-5.995l2.643-2.394l-1.152-1.259
			c-0.765,0.818-3.576,2.741-3.961,2.956c-1.677,0.936-3.671,0.904-5.248,1.898C173.119,152.168,172.298,152.607,172.538,153.79z"/>
		<g>
			<g>
				<linearGradient id="SVGID_11_" gradientUnits="userSpaceOnUse" x1="42.5928" y1="14.3706" x2="33.5926" y2="121.3714">
					<stop  offset="0.0054" style="stop-color:#FBFEFF"/>
					<stop  offset="1" style="stop-color:#FAF9D9"/>
				</linearGradient>
				<polygon fill="url(#SVGID_11_)" points="0,87.127 46.788,113.331 75.538,56.294 38.914,35.923 				"/>
				<linearGradient id="SVGID_12_" gradientUnits="userSpaceOnUse" x1="62.2812" y1="75.4033" x2="66.2813" y2="163.4032">
					<stop  offset="0.0054" style="stop-color:#F174A8"/>
					<stop  offset="1" style="stop-color:#F05C97"/>
				</linearGradient>
				<polygon fill="url(#SVGID_12_)" points="46.788,113.331 57.593,111.049 78.778,59.549 75.538,56.294 				"/>
			</g>
			<path fill="#522B82" d="M43.197,45.648l-0.402-0.296C43.859,43.899,68.85,9.893,74.498,9.893c0.022,0,0.045,0,0.067,0.002
				l-0.025,0.499c-0.019-0.001-0.038-0.001-0.058-0.001C70.18,10.393,52.162,33.417,43.197,45.648z"/>
		</g>
		<path fill="#522B82" d="M76.934,10.168l-0.389-0.214L77,11.061l0,0c0.897,1.865,2.33,10.523-14.442,46.047l0.451,0.214
			C83.085,14.805,77.209,10.346,76.934,10.168z"/>
	</g>
</g>
</svg>
